<svg width="100" height="80" xmlns="http://www.w3.org/2000/svg">

 <g>
  <title>background</title>
  <rect fill="none" id="canvas_background" height="82" width="102" y="-1" x="-1"/>
 </g>
 <g>
  <title>Layer 1</title>
  <path fill="#ffffff" id="svg_1" d="m88.85,38.507l-26.776,-26.775c-1.376,-1.376 -3.607,-1.376 -4.984,0l-26.776,26.775c-0.661,0.661 -1.032,1.558 -1.032,2.492c0,0.934 0.372,1.831 1.032,2.492l11.771,11.772l4.984,-4.984l-9.279,-9.279l10.853,-10.853l10.852,10.853l-21.792,21.791l-21.792,-21.791l21.792,-21.792l4.453,4.453l4.984,-4.983l-6.945,-6.945c-1.376,-1.376 -3.607,-1.376 -4.983,0l-26.776,26.774c-0.661,0.661 -1.033,1.558 -1.033,2.493c0,0.934 0.372,1.831 1.032,2.492l26.776,26.776c0.66,0.66 1.557,1.031 2.491,1.031s1.831,-0.371 2.492,-1.031l8.447,-8.447l8.447,8.447c0.661,0.66 1.558,1.031 2.492,1.031s1.831,-0.371 2.492,-1.031l26.778,-26.777c0.661,-0.661 1.032,-1.558 1.032,-2.492c0,-0.934 -0.371,-1.831 -1.032,-2.492zm-29.268,24.284l-5.956,-5.955l13.345,-13.345c0.661,-0.661 1.032,-1.558 1.032,-2.492c0,-0.935 -0.371,-1.831 -1.032,-2.492l-13.345,-13.343l5.956,-5.956l21.792,21.792l-21.792,21.791z"/>
 </g>
</svg>